<?xml version="1.0" standalone="no"?>
<!DOCTYPE svg PUBLIC "-//W3C//DTD SVG 20010904//EN"
 "http://www.w3.org/TR/2001/REC-SVG-20010904/DTD/svg10.dtd">
<svg version="1.0" xmlns="http://www.w3.org/2000/svg"
 width="500.000000pt" height="500.000000pt" viewBox="0 0 500.000000 500.000000"
 preserveAspectRatio="xMidYMid meet">

<g transform="translate(0.000000,500.000000) scale(0.100000,-0.100000)"
fill="#000000" stroke="none">
<path d="M3632 2918 c-17 -17 -15 -48 4 -69 15 -17 14 -24 -25 -99 -23 -44
-40 -80 -37 -80 3 0 17 23 31 50 28 56 47 62 71 25 15 -23 15 -27 0 -49 -8
-14 -26 -27 -38 -29 -21 -4 -21 -4 -2 -6 56 -3 80 74 33 110 -29 21 -19 37 15
21 13 -6 34 -8 46 -5 14 4 30 -2 48 -19 15 -14 39 -28 53 -32 17 -4 29 -15 33
-30 3 -14 20 -33 36 -43 23 -13 30 -24 30 -50 0 -17 5 -35 10 -38 16 -10 12
-41 -8 -56 -15 -13 -15 -13 3 -3 21 12 22 23 9 98 -5 28 -14 43 -35 55 -16 9
-33 28 -38 43 -6 18 -19 30 -38 34 -15 4 -40 18 -55 32 -18 17 -34 23 -48 19
-26 -7 -72 12 -67 27 5 14 60 10 122 -11 100 -33 205 -169 205 -265 0 -32 5
-34 27 -13 33 34 79 -7 54 -47 -13 -21 -13 -22 2 -9 11 9 17 28 17 55 0 22 -4
37 -8 31 -12 -16 -82 -16 -82 0 0 40 -46 129 -89 174 -60 62 -116 90 -206 105
-62 11 -70 15 -73 36 -3 15 3 29 14 37 10 7 13 13 8 13 -6 0 -15 -5 -22 -12z"/>
<path d="M3703 2923 c9 -2 25 -2 35 0 9 3 1 5 -18 5 -19 0 -27 -2 -17 -5z"/>
<path d="M3813 2897 c68 -30 118 -65 170 -121 32 -34 35 -36 18 -9 -43 65
-142 132 -217 148 -16 4 -3 -5 29 -18z"/>
<path d="M1600 2570 l0 -200 35 0 35 0 0 200 0 200 -35 0 -35 0 0 -200z"/>
<path d="M2234 2756 c-13 -33 0 -51 36 -51 32 0 35 2 35 30 0 27 -4 30 -33 33
-22 2 -34 -2 -38 -12z"/>
<path d="M890 2560 l0 -193 94 5 c162 9 221 65 214 201 -6 128 -54 168 -210
175 l-98 4 0 -192z m189 108 c29 -18 41 -52 41 -113 0 -41 -5 -60 -22 -80 -23
-26 -99 -51 -119 -40 -5 4 -9 63 -9 132 l0 126 45 -6 c24 -4 53 -12 64 -19z"/>
<path d="M1900 2560 l0 -190 40 0 39 0 3 68 3 67 60 6 c49 6 64 12 87 38 22
25 28 41 28 79 0 89 -48 122 -180 122 l-80 0 0 -190z m168 108 c36 -36 -2 -98
-60 -98 -27 0 -28 2 -28 55 l0 55 38 0 c21 0 43 -5 50 -12z"/>
<path d="M4037 2695 c9 -19 18 -33 21 -31 4 5 -26 66 -33 66 -3 0 3 -16 12
-35z"/>
<path d="M3775 2700 c-3 -6 1 -7 9 -4 18 7 21 14 7 14 -6 0 -13 -4 -16 -10z"/>
<path d="M3816 2695 c4 -8 0 -23 -7 -33 -13 -15 -12 -16 4 -3 18 14 24 51 7
51 -5 0 -7 -7 -4 -15z"/>
<path d="M3760 2673 c0 -6 8 -17 18 -24 16 -13 16 -13 2 6 -8 11 -16 22 -17
24 -2 2 -3 0 -3 -6z"/>
<path d="M2985 2663 c-59 -15 -65 -21 -53 -48 9 -20 17 -25 32 -20 73 21 98
16 110 -21 6 -20 2 -22 -54 -26 -83 -6 -114 -30 -118 -91 -2 -36 2 -51 17 -66
29 -29 108 -29 144 -1 25 20 25 20 30 0 3 -14 14 -20 31 -20 l26 0 0 118 c0
134 -8 155 -68 172 -39 10 -63 11 -97 3z m95 -174 c0 -37 -47 -74 -80 -64 -22
7 -27 44 -8 63 15 15 88 16 88 1z"/>
<path d="M1312 2635 c-71 -59 -60 -210 18 -250 29 -15 116 -20 158 -9 16 5 22
14 22 36 0 24 -3 29 -17 24 -9 -4 -36 -10 -59 -13 -36 -5 -46 -2 -68 20 -48
48 -37 57 69 57 l95 0 0 30 c0 42 -23 94 -51 114 -15 10 -44 16 -80 16 -47 0
-63 -5 -87 -25z m132 -47 c9 -12 16 -26 16 -30 0 -5 -27 -8 -60 -8 -33 0 -60
3 -60 8 0 23 34 52 60 52 18 0 34 -8 44 -22z"/>
<path d="M2230 2515 l0 -145 40 0 40 0 0 145 0 145 -40 0 -40 0 0 -145z"/>
<path d="M2370 2630 l0 -30 65 0 65 0 -70 -94 c-39 -52 -70 -104 -70 -115 0
-20 5 -21 115 -21 l115 0 0 30 c0 29 0 29 -64 32 l-65 3 65 88 c38 52 64 97
64 112 l0 25 -110 0 -110 0 0 -30z"/>
<path d="M2630 2630 l0 -30 65 0 65 0 -70 -94 c-39 -52 -70 -104 -70 -115 0
-20 5 -21 115 -21 l115 0 0 30 c0 29 0 29 -64 32 l-65 3 65 88 c38 52 64 97
64 112 l0 25 -110 0 -110 0 0 -30z"/>
<path d="M3520 2580 c-17 -33 -28 -60 -25 -60 2 0 18 27 35 60 17 33 28 60 25
60 -2 0 -18 -27 -35 -60z"/>
<path d="M3690 2635 c0 -15 18 -40 24 -34 3 3 -1 14 -9 25 -8 10 -14 15 -15 9z"/>
<path d="M3772 2604 c-12 -8 -22 -19 -22 -25 0 -5 9 0 20 11 11 11 26 20 33
20 24 0 57 -31 57 -55 0 -52 -65 -74 -94 -33 -9 12 -16 18 -16 12 0 -18 35
-44 58 -44 29 0 62 34 62 63 0 26 -38 67 -61 67 -8 0 -25 -7 -37 -16z"/>
<path d="M4072 2600 c0 -14 2 -19 5 -12 2 6 2 18 0 25 -3 6 -5 1 -5 -13z"/>
<path d="M3576 2564 c-22 -22 -20 -31 2 -11 24 22 55 21 75 -1 22 -25 21 -48
-3 -72 -11 -11 -16 -20 -12 -20 16 0 42 36 42 58 0 50 -70 81 -104 46z"/>
<path d="M3551 2514 c0 -11 3 -14 6 -6 3 7 2 16 -1 19 -3 4 -6 -2 -5 -13z"/>
<path d="M3421 2398 c-34 -62 -60 -115 -59 -120 2 -4 31 46 66 112 35 66 61
120 58 120 -2 0 -32 -50 -65 -112z"/>
<path d="M4000 2491 c0 -13 39 -35 48 -27 3 3 0 6 -6 6 -6 0 -18 7 -26 16 -9
8 -16 11 -16 5z"/>
<path d="M3572 2474 c10 -10 20 -16 22 -13 3 3 -5 11 -17 18 -21 13 -21 12 -5
-5z"/>
<path d="M3835 2467 c-28 -16 -41 -30 -43 -49 l-3 -26 65 35 c83 43 87 54 6
13 -46 -23 -60 -27 -60 -15 0 8 18 24 40 35 22 11 40 23 40 25 0 7 -1 7 -45
-18z"/>
<path d="M3560 2410 c-9 -6 -10 -10 -3 -10 6 0 15 5 18 10 8 12 4 12 -15 0z"/>
<path d="M3455 2390 c-17 -27 28 -72 55 -55 14 8 13 38 -2 53 -15 15 -45 16
-53 2z m53 -27 c4 -25 -16 -31 -36 -11 -20 20 -14 40 11 36 14 -2 23 -11 25
-25z"/>
<path d="M3650 2361 c-5 -11 -10 -33 -10 -50 0 -37 -2 -37 -40 -9 l-30 21 -52
-28 c-77 -40 -84 -53 -10 -16 56 28 91 34 78 12 -3 -4 0 -8 7 -8 7 0 20 -4 29
-8 13 -5 20 0 27 19 6 14 24 32 40 40 27 15 30 14 34 -2 4 -14 5 -13 6 4 2 43
-59 62 -79 25z m40 -10 c-13 -11 -28 -17 -33 -14 -13 8 14 33 37 33 20 0 20
-1 -4 -19z"/>
<path d="M3783 2320 c0 -25 2 -35 4 -22 2 12 2 32 0 45 -2 12 -4 2 -4 -23z"/>
<path d="M3731 2282 c-1 -34 21 -54 41 -34 7 7 5 10 -8 9 -13 -2 -20 7 -25 28
l-7 30 -1 -33z"/>
<path d="M3508 2249 c-32 -16 -58 -32 -58 -34 0 -3 27 8 60 25 33 17 60 32 60
35 0 7 2 8 -62 -26z"/>
<path d="M3360 2248 c0 -22 33 -48 61 -47 20 1 21 2 4 6 -11 3 -30 16 -42 31
-16 17 -23 20 -23 10z"/>
<path d="M3420 2240 c-9 -6 -10 -10 -3 -10 6 0 15 5 18 10 8 12 4 12 -15 0z"/>
</g>
</svg>
